<svg id="Layer_1" data-name="Layer 1" xmlns="http://www.w3.org/2000/svg" viewBox="0 0 1619.7173 595.7727"><defs><style>.cls-1,.cls-2{fill:#4b4b4b;}.cls-2{font-size:526.22px;font-family:Muli-ExtraLight, Muli ExtraLight;font-weight:200;}</style></defs><title>onos-logo</title><path class="cls-1" d="M438.5164,711.7872,74.8243,349.3264C137.7026,281.171,214.4887,250.28,306.62,262.5053c104.4541,13.8609,188.87,91.3177,212.5749,191.2333C543.2644,555.19,513.5129,640.9648,438.5164,711.7872Z" transform="translate(-13.5894 -259.8884)"/><path class="cls-1" d="M58.2285,371.8186,414.9433,729.0118c-1.68,1.1217-3.2788,2.2136-4.9014,3.268A267.844,267.844,0,0,1,363.88,756.0716c-2.1781.8762-3.4557.5321-5.1216-1.134Q223.1407,619.3107,87.4274,483.7794q-27.7125-27.6948-55.2257-55.5883c-.91-.9215-1.8174-2.8839-1.4438-3.8811A246.2442,246.2442,0,0,1,58.2285,371.8186Z" transform="translate(-13.5894 -259.8884)"/><path class="cls-1" d="M20.67,456.9951,330.2,766.6176c-6.1655,1.2145-12.3752,2.92-18.6942,3.5822-13.2717,1.3906-26.595,2.3229-39.9137,3.187a7.5442,7.5442,0,0,1-5.1223-2.1079Q140.9823,646,15.6881,520.5271a7.1005,7.1005,0,0,1-2.0953-4.4028,249.16,249.16,0,0,1,6.7018-58.2733A4.6329,4.6329,0,0,1,20.67,456.9951Z" transform="translate(-13.5894 -259.8884)"/><path class="cls-1" d="M17.51,562.6609l206.068,206.0682c-19.4371,2.5907-84.7668-27.2835-116.9082-54.1774C59.0366,674.695,29.5624,624.098,17.51,562.6609Z" transform="translate(-13.5894 -259.8884)"/><text class="cls-2" transform="translate(513.6157 452.1174)">NOS</text></svg>