<?xml version="1.0" encoding="utf-8"?>
<!-- Generator: Adobe Illustrator 23.0.2, SVG Export Plug-In . SVG Version: 6.00 Build 0)  -->
<svg version="1.1" id="Layer_1" xmlns="http://www.w3.org/2000/svg" xmlns:xlink="http://www.w3.org/1999/xlink" x="0px" y="0px"
	 viewBox="0 0 1000 1000" style="enable-background:new 0 0 1000 1000;" xml:space="preserve">
<style type="text/css">
	.st0{fill:#4B4B4B;}
</style>
<g>
	<path class="st0" d="M500,10C229.4,10,10,229.4,10,500s219.4,490,490,490s490-219.4,490-490S770.6,10,500,10z M845.2,786.9
		c-44.4-18.6-150.1-55.3-215.9-74.8c-5.6-1.8-6.5-2-6.5-25.2c0-19.2,7.9-38.5,15.6-54.8c8.3-17.8,18.2-47.7,21.8-74.4
		c9.9-11.5,23.5-34.3,32.1-77.6c7.6-38.2,4.1-52.1-1-65.2c-0.5-1.4-1.1-2.7-1.4-4.1c-1.9-8.9,0.7-55.5,7.2-91.6
		c4.5-24.8-1.2-77.4-35.2-121c-21.5-27.5-62.8-61.3-138-66h-41.3c-74,4.7-115.2,38.5-136.7,66c-34.1,43.5-39.8,96.2-35.2,121
		c6.5,36.1,9.2,82.6,7.3,91.4c-0.4,1.5-1,2.9-1.5,4.2c-5,13.1-8.6,27-1,65.2c8.7,43.3,22.2,66,32.1,77.6
		c3.5,26.8,13.4,56.7,21.8,74.4c6.1,13,9,30.7,9,55.7c0,23.2-0.8,23.5-6.1,25.2c-67.7,20-175.3,58.9-215.4,76.4
		C90.9,711.1,50.8,610.2,50.8,500C50.8,252.3,252.3,50.8,500,50.8S949.2,252.3,949.2,500C949.2,609,910.1,709,845.2,786.9z"/>
</g>
</svg>
