<?xml version="1.0" standalone="no"?>
<!DOCTYPE svg PUBLIC "-//W3C//DTD SVG 20010904//EN"
 "http://www.w3.org/TR/2001/REC-SVG-20010904/DTD/svg10.dtd">
<svg version="1.0" xmlns="http://www.w3.org/2000/svg"
 width="700.000000pt" height="700.000000pt" viewBox="0 0 700.000000 700.000000"
 preserveAspectRatio="xMidYMid meet">
<metadata>
Created by potrace 1.11, written by Peter Selinger 2001-2013
</metadata>
<g transform="translate(0.000000,700.000000) scale(0.100000,-0.100000)"
fill="#000000" stroke="none">
<path d="M3249 6996 c-2 -2 -44 -7 -94 -10 -49 -4 -99 -9 -110 -11 -11 -2 -39
-7 -63 -9 -206 -25 -568 -117 -717 -181 -16 -7 -75 -32 -130 -55 -325 -135
-707 -384 -1005 -654 -75 -69 -290 -286 -290 -294 0 -4 585 -590 1299 -1302
715 -712 1829 -1823 2475 -2468 l1175 -1173 103 103 c57 57 137 141 178 188
41 46 83 93 93 105 10 11 37 45 60 75 23 30 45 57 48 60 15 12 162 224 216
310 92 146 185 324 243 460 17 41 36 86 42 100 35 82 70 184 107 315 28 101
65 264 76 339 2 17 7 47 10 66 25 167 32 303 29 530 -2 237 -5 278 -30 455
-21 151 -25 175 -80 432 -13 63 -80 277 -119 385 -60 161 -203 451 -301 608
-74 119 -226 328 -296 407 -356 403 -721 681 -1168 892 -290 136 -659 248
-943 286 -27 4 -58 8 -68 10 -11 2 -52 7 -91 10 -39 4 -85 9 -102 11 -36 6
-542 15 -547 10z"/>
<path d="M548 5383 c-116 -183 -225 -394 -287 -557 -24 -63 -28 -83 -19 -100
17 -34 4471 -4486 4493 -4492 39 -10 319 120 565 263 75 43 161 105 158 113
-4 10 -4843 4860 -4849 4860 -3 0 -30 -39 -61 -87z"/>
<path d="M85 4273 c-5 -21 -9 -42 -11 -48 -12 -51 -42 -231 -49 -300 -4 -33
-9 -71 -11 -85 -11 -72 -15 -322 -5 -352 8 -24 494 -516 1736 -1758 l1725
-1725 58 0 c57 0 266 12 332 20 19 2 64 6 100 10 117 10 154 16 250 36 52 11
95 21 97 22 2 3 -4206 4217 -4211 4217 -2 0 -7 -17 -11 -37z"/>
<path d="M64 2828 c6 -39 6 -41 41 -178 25 -99 76 -271 94 -315 4 -11 32 -81
61 -155 93 -241 243 -512 407 -738 182 -250 424 -502 663 -688 110 -86 366
-254 387 -254 4 0 14 -6 22 -14 19 -17 354 -188 461 -236 85 -37 256 -103 345
-132 52 -16 87 -26 170 -44 11 -3 49 -7 85 -10 l65 -5 -1400 1401 c-770 770
-1401 1400 -1403 1400 -2 0 -1 -15 2 -32z"/>
</g>
</svg>
